<?xml version="1.0" encoding="UTF-8"?><svg id="Layer_1" xmlns="http://www.w3.org/2000/svg" viewBox="0 0 150 150"><defs><style>.cls-1{fill:#d8dee9;}.cls-2{fill:#fff;}.cls-2,.cls-3,.cls-4{stroke:#2e3440;stroke-miterlimit:10;stroke-width:4px;}.cls-3{fill:#02a7ff;}.cls-4{fill:none;stroke-linecap:round;}</style></defs><path class="cls-1" d="M126.56,150H23.44c-12.94,0-23.44-10.49-23.44-23.44V23.44C0,10.49,10.49,0,23.44,0H126.56c12.94,0,23.44,10.49,23.44,23.44V126.56c0,12.94-10.49,23.44-23.44,23.44Z"/><g><g><path class="cls-2" d="M110.22,37.85H39.88c-1.3,0-2.36,1.06-2.36,2.36v57.22c4.81-1.69,10.84-3.18,17.1-3.18,14.74,0,35.05,7.86,46.95,7.86,4.26,0,7.92-.36,11.02-1.16V40.21c0-1.3-1.06-2.36-2.36-2.36Z"/><path class="cls-3" d="M54.56,94.25c-6.25,0-12.28,1.49-17.1,3.18v12.36c0,1.3,1.06,2.36,2.36,2.36H110.17c1.3,0,2.36-1.06,2.36-2.36v-8.84c-3.1,.8-6.76,1.16-11.02,1.16-11.9,0-32.21-7.86-46.95-7.86Z"/></g><path class="cls-4" d="M26.66,102.11s13.17-7.86,27.51-7.86,35.05,7.86,46.95,7.86,18.49-2.55,22.22-9.43"/><rect class="cls-4" x="37.07" y="37.85" width="75.06" height="74.29" rx="2.36" ry="2.36"/><line class="cls-4" x1="46.51" y1="55.54" x2="102.12" y2="55.54"/><line class="cls-4" x1="46.51" y1="70.47" x2="102.12" y2="70.47"/><line class="cls-4" x1="46.51" y1="85.41" x2="102.12" y2="85.41"/></g></svg>